<svg width="30" height="30" viewBox="0 0 30 30" fill="#000000" xmlns="http://www.w3.org/2000/svg">
<path d="M23.9897 3.63139C23.9869 3.62859 23.9836 3.62542 23.98 3.62215C23.9698 3.61279 23.9572 3.6023 23.9418 3.59174L23.9419 3.59166L23.9364 3.58807L19.7777 0.88092L19.7769 0.880453C19.6422 0.793395 19.4899 0.75 19.3321 0.75H10.6414C10.4874 0.75 10.3259 0.791582 10.1857 0.889795L6.0646 3.59746C6.03207 3.61734 6.00587 3.64173 5.99231 3.65541C5.98125 3.66456 5.97194 3.67282 5.96534 3.67867L5.96405 3.67981C5.95318 3.68944 5.94883 3.6932 5.94459 3.69648C5.9352 3.70376 5.92634 3.7117 5.91809 3.72024C5.91694 3.72142 5.91571 3.72268 5.91441 3.72402C5.89529 3.74371 5.86023 3.77979 5.82942 3.82736C5.82746 3.82953 5.82538 3.83188 5.82326 3.83436C5.81427 3.84486 5.80431 3.85767 5.79435 3.87312L5.79416 3.87299L5.78874 3.88224L0.873684 12.2718C0.854423 12.303 0.843472 12.3317 0.83646 12.3558C0.835882 12.3578 0.835311 12.3599 0.834771 12.3618C0.818578 12.3958 0.797498 12.4428 0.782366 12.4976L0.782239 12.4975L0.780336 12.5054C0.77621 12.5225 0.773768 12.5378 0.772221 12.549C0.77078 12.5594 0.769699 12.5695 0.769033 12.5757L0.76893 12.5766L0.767568 12.5886C0.765205 12.5992 0.763547 12.61 0.762602 12.6209L0.762586 12.621C0.761261 12.6265 0.758271 12.6388 0.755837 12.6522C0.753092 12.6673 0.75 12.6891 0.75 12.7149V17.671C0.75 17.8097 0.781346 17.9556 0.857768 18.0887L5.35776 26.3436C5.43558 26.4939 5.56043 26.6118 5.69778 26.687L5.69924 26.6878L10.2589 29.1438C10.2931 29.1644 10.3235 29.174 10.3347 29.1775L10.336 29.178C10.3367 29.1782 10.3374 29.1784 10.338 29.1786C10.3457 29.1822 10.3536 29.1854 10.3617 29.1881L10.3709 29.1918L10.3719 29.1923C10.3792 29.1953 10.3924 29.2007 10.4083 29.2062C10.4795 29.2307 10.5659 29.25 10.6531 29.25H19.3496H19.3555C19.4423 29.25 19.5215 29.2304 19.5697 29.2179C19.5961 29.2111 19.6338 29.2003 19.675 29.1775C19.6783 29.1762 19.6811 29.1751 19.6833 29.1742L19.6843 29.1738L19.6935 29.17C19.7063 29.1656 19.7187 29.1602 19.7307 29.1538L24.2977 26.6938L24.2991 26.693C24.4436 26.614 24.557 26.4941 24.6355 26.3562L24.6356 26.3562L24.6377 26.3522L29.1406 18.0921L29.1406 18.0921L29.1432 18.0871C29.205 17.9675 29.2469 17.8259 29.2469 17.677V12.7331C29.267 12.5073 29.1879 12.3146 29.0741 12.1732L24.2104 3.87406C24.1945 3.84531 24.1748 3.82097 24.1608 3.8053C24.1317 3.76266 24.1002 3.73023 24.0825 3.71195L24.0788 3.70818C24.0485 3.67679 24.0124 3.64889 23.9921 3.63319L23.9897 3.63139ZM21.0494 19.8585L18.7501 27.5261H11.2821L8.97108 19.8584L15.0101 16.1968L21.0494 19.8585ZM21.9367 18.3532L15.8434 14.6602V7.05672L23.0952 5.28448L27.3684 12.5774L21.9367 18.3532ZM10.8852 2.44983H19.0946L21.3827 3.93906L14.9925 5.49978L8.60613 3.94418L10.8852 2.44983ZM2.63429 12.5834L6.90868 5.28862L14.1593 7.0627V14.6605L8.07161 18.3649L2.63429 12.5834ZM6.7018 25.2822L2.4282 17.4385V14.8234L7.22287 19.9279L9.26914 26.6702L6.7018 25.2822ZM22.8032 19.9218L27.5979 14.8174V17.4385L23.3244 25.282L20.7565 26.6654L22.8032 19.9218Z" />
</svg>
