<svg width="30" height="30" viewBox="0 0 30 30" fill="#000000" xmlns="http://www.w3.org/2000/svg">
<path d="M25.8576 5.01315L25.8578 5.01326C27.0959 5.65827 27.9123 6.20225 28.4265 6.95956C28.9429 7.71998 29.1319 8.66097 29.2089 10.0395L29.2091 10.0444L29.2091 10.0444C29.2299 10.6173 29.2298 12.6255 29.2291 14.5914L29.229 14.8054C29.2283 16.704 29.2276 18.5124 29.2443 18.9322C29.2901 20.0459 29.0577 21.0091 28.5525 21.8303C28.0482 22.6499 27.2828 23.311 26.2893 23.8394C24.5406 24.7732 22.8047 25.7246 21.0678 26.6765C19.9366 27.2965 18.805 27.9167 17.669 28.5324L17.6688 28.5326C15.9074 29.485 14.1123 29.4915 12.3553 28.5381C11.2683 27.9488 10.1864 27.3541 9.10519 26.7598C7.3204 25.7786 5.53733 24.7985 3.73588 23.8455L3.73565 23.8454C2.73797 23.3164 1.98158 22.6549 1.47914 21.8365C0.976246 21.0173 0.738258 20.0579 0.750445 18.9507L0.750446 18.9507C0.771609 17.0536 0.767375 15.1595 0.763137 13.2635C0.760308 11.9981 0.757477 10.7318 0.762194 9.46307L25.8576 5.01315ZM25.8576 5.01315C25.5811 4.86943 24.2707 4.2727 22.8427 3.62236C22.6823 3.54932 22.5205 3.47561 22.3584 3.40178C20.742 2.6654 19.1045 1.91693 18.671 1.6913L18.6704 1.69102M25.8576 5.01315L18.6704 1.69102M18.6704 1.69102C16.2007 0.41322 13.8811 0.567018 12.0576 1.37751C9.64609 2.39315 7.63152 3.35573 5.43678 4.40441C4.78439 4.71612 4.11609 5.03545 3.4167 5.36603M18.6704 1.69102L3.4167 5.36603M15.9973 14.305L16.1158 14.5251C19.3254 12.796 22.5484 11.0883 25.7739 9.37915C26.2586 9.12234 26.7434 8.86549 27.2281 8.60853C27.2561 8.59425 27.2892 8.58076 27.3498 8.55861C27.3599 8.60939 27.3701 8.65889 27.38 8.70687C27.3915 8.76283 27.4026 8.81672 27.4128 8.86816C27.4486 9.04994 27.4746 9.20996 27.4801 9.36655C27.4889 11.8261 27.4878 14.2887 27.4867 16.7526C27.4863 17.5749 27.486 18.3974 27.486 19.2199C27.486 19.8973 27.3309 20.4744 27.0317 20.9629C26.7322 21.4519 26.2796 21.866 25.6636 22.2034C24.5141 22.8312 23.3659 23.4605 22.2178 24.0898C20.369 25.103 18.5205 26.1162 16.6668 27.1232C16.525 27.199 16.3688 27.2606 16.1886 27.3245C16.1273 27.3463 16.0615 27.3689 15.9926 27.3925C15.9653 27.4018 15.9376 27.4114 15.9094 27.4211C15.9005 27.2758 15.8944 27.1634 15.8944 27.0485C15.8944 26.3784 15.8942 25.7083 15.8941 25.038C15.8933 21.6875 15.8924 18.3352 15.912 14.9868V14.9853C15.912 14.9142 15.9367 14.8061 15.9853 14.7026C16.0368 14.5931 16.0915 14.5383 16.1164 14.5248L15.9973 14.305ZM15.9973 14.305C15.8091 14.4071 15.662 14.7529 15.662 14.9853L27.1126 8.38683C26.6274 8.64399 26.1423 8.90106 25.6572 9.1581C22.4316 10.8672 19.2078 12.5754 15.9973 14.305ZM2.43663 8.40522C2.5215 8.44371 2.59654 8.47725 2.66439 8.50758C2.66704 8.50877 2.66969 8.50995 2.67232 8.51113L2.43663 8.40522ZM2.43663 8.40522C2.45035 8.32267 2.46388 8.23735 2.47659 8.14874L2.43663 8.40522ZM3.4167 5.36603C2.55579 5.77069 1.89047 6.32196 1.44054 7.0157C0.99034 7.70987 0.765287 8.53209 0.762194 9.46297L3.4167 5.36603ZM3.91345 7.19219C3.87676 7.17195 3.84236 7.15116 3.80373 7.12676C4.12709 6.97273 4.42926 6.82695 4.72146 6.68596C4.96606 6.56795 5.20369 6.4533 5.44093 6.34C5.95745 6.10233 6.47364 5.86448 6.98967 5.6267C9.07084 4.66774 11.1493 3.71 13.2356 2.77037C14.3885 2.2551 15.5906 2.25556 16.725 2.75943C19.0283 3.78246 21.3144 4.84021 23.601 5.89813C24.3659 6.25204 25.1308 6.60596 25.8965 6.95861L25.8965 6.95864L25.9002 6.96031C26.0015 7.00494 26.0924 7.05861 26.2037 7.12756C26.1054 7.18714 26.0179 7.23852 25.9259 7.28688L25.9243 7.28774C22.4072 9.16986 18.8911 11.0514 15.3635 12.9046L15.363 12.9049C15.2789 12.9493 15.147 12.9841 15.0058 12.9918C14.8615 12.9998 14.7468 12.9774 14.6853 12.9447L14.6847 12.9444C11.3385 11.1818 8.01252 9.39468 4.68223 7.60526C4.42599 7.46758 4.16974 7.32989 3.91345 7.19219ZM3.09437 8.70961C6.62257 10.6084 10.1514 12.5076 13.6922 14.3897L13.6921 14.3898L13.695 14.3913C13.8879 14.4906 13.9897 14.5817 14.0486 14.6776C14.1073 14.773 14.1417 14.9027 14.1417 15.115C14.1241 18.0538 14.1263 20.996 14.1285 23.9357C14.1292 24.9151 14.13 25.8942 14.13 26.8728V26.8742V26.8756V26.8771V26.8785V26.8799V26.8813V26.8828V26.8842V26.8856V26.8871V26.8885V26.8899V26.8913V26.8928V26.8942V26.8956V26.897V26.8985V26.8999V26.9013V26.9028V26.9042V26.9056V26.907V26.9085V26.9099V26.9113V26.9127V26.9142V26.9156V26.917V26.9185V26.9199V26.9213V26.9227V26.9242V26.9256V26.927V26.9285V26.9299V26.9313V26.9328V26.9342V26.9356V26.937V26.9385V26.9399V26.9413V26.9428V26.9442V26.9456V26.9471V26.9485V26.9499V26.9514V26.9528V26.9542V26.9557V26.9571V26.9585V26.96V26.9614V26.9629V26.9643V26.9657V26.9672V26.9686V26.97V26.9715V26.9729V26.9744V26.9758V26.9772V26.9787V26.9801V26.9816V26.983V26.9844V26.9859V26.9873V26.9888V26.9902V26.9917V26.9931V26.9946V26.996V26.9975V26.9989V27.0004V27.0018V27.0033V27.0047V27.0062V27.0076V27.0091V27.0105V27.012V27.0134V27.0149V27.0163V27.0178V27.0193V27.0207V27.0222V27.0236V27.0251V27.0266V27.028V27.0295V27.031V27.0324V27.0339V27.0354V27.0368V27.0383V27.0398V27.0412V27.0427V27.0442V27.0456V27.0471V27.0486V27.0501V27.0515V27.053V27.0545V27.056V27.0575V27.0589V27.0604V27.0619V27.0634V27.0649V27.0664V27.0678V27.0693V27.0708V27.0723V27.0738V27.0753V27.0768V27.0783V27.0798V27.0813V27.0828V27.0843V27.0858V27.0873V27.0888V27.0903V27.0918V27.0933V27.0948V27.0963V27.0978V27.0993V27.1008V27.1023V27.1038V27.1053V27.1069V27.1084V27.1099V27.1114V27.1129V27.1145V27.116V27.1175V27.119V27.1206V27.1221V27.1236V27.1251V27.1267V27.1282V27.1297V27.1313V27.1328V27.1344V27.1359V27.1374V27.139V27.1405V27.1421V27.1436V27.1452V27.1467V27.1483V27.1498V27.1514V27.1529V27.1545V27.156V27.1576V27.1592V27.1607V27.1623V27.1639V27.1654V27.167V27.1686V27.1701V27.1717V27.1733V27.1749V27.1764V27.178V27.1796V27.1812V27.1828V27.1843V27.1859V27.1875V27.1891V27.1907V27.1923V27.1939V27.1955V27.1971V27.1987V27.2003V27.2019V27.2035V27.2051V27.2067V27.2083V27.21V27.2116V27.2132V27.2148V27.2164V27.218V27.2197V27.2213V27.2229V27.2246V27.2262V27.2278V27.2295V27.2311V27.2327V27.2344V27.236V27.2377V27.2393V27.241V27.2426V27.2443V27.2459V27.2476V27.2492V27.2509V27.2525V27.2542V27.2559V27.2575V27.2592V27.2609V27.2626V27.2642V27.2659V27.2676V27.2693V27.271V27.2726V27.2743V27.276V27.2777V27.2794V27.2811V27.2828V27.2845V27.2862V27.2879V27.2896V27.2913V27.2931V27.2948V27.2965V27.2982V27.2999V27.3016V27.3034V27.3051V27.3068V27.3086V27.3103V27.312V27.3138V27.3155V27.3173V27.319V27.3207V27.3225V27.3243V27.326V27.3278V27.3295V27.3313V27.3331V27.3348V27.3366V27.3384V27.3401V27.3419V27.3437V27.3455V27.3473V27.349V27.3508V27.3526V27.3544V27.3562V27.358V27.3598V27.3616V27.3634V27.3652V27.367V27.3689V27.3707V27.3725V27.3743V27.3761V27.378V27.3798V27.3816V27.3835V27.3853V27.3871V27.389V27.3908V27.3927V27.3945V27.3964V27.3982V27.4001V27.4019V27.4038V27.4057V27.4075V27.408C14.075 27.3871 14.022 27.3673 13.9708 27.3481C13.6822 27.2398 13.4496 27.1525 13.2248 27.0281L13.2227 27.027C11.7559 26.2337 10.2919 25.4346 8.82741 24.6352L8.82542 24.6342C7.36176 23.8353 5.8976 23.0361 4.43043 22.2426L4.43031 22.2425C3.77874 21.8906 3.30658 21.4624 2.99667 20.9535C2.68713 20.4452 2.52975 19.8403 2.53251 19.119C2.53251 19.119 2.53251 19.1189 2.53251 19.1188L2.28251 19.1179C2.29214 17.3708 2.29126 15.6221 2.29039 13.8736L3.09437 8.70961Z" />
</svg>
