<svg width="26" height="30" viewBox="0 0 26 30" fill="#000000" xmlns="http://www.w3.org/2000/svg">
<path d="M25 8.08122C25 8.05815 24.9944 8.0293 24.9887 8.00622C24.9831 7.98315 24.9831 7.96007 24.9775 7.937C24.9719 7.91392 24.9606 7.89084 24.9494 7.86776C24.9381 7.84469 24.9325 7.82161 24.9212 7.79854C24.91 7.77546 24.8931 7.75815 24.8762 7.73507C24.8593 7.71777 24.8481 7.69469 24.8312 7.67738C24.8087 7.6543 24.7805 7.637 24.7524 7.61969C24.7411 7.60816 24.7299 7.59662 24.713 7.59085C24.713 7.59085 24.713 7.59085 24.7074 7.59085L13.2842 1.07176C13.1041 0.967912 12.8846 0.979454 12.7158 1.08907C12.7102 1.08907 12.7102 1.08906 12.7046 1.09483L1.29261 7.64854C1.29261 7.64854 1.29262 7.64854 1.28699 7.64854C1.27011 7.65431 1.25885 7.67161 1.2476 7.67738C1.21946 7.69469 1.19133 7.712 1.16882 7.73507C1.15194 7.75238 1.14068 7.77546 1.1238 7.79277C1.10692 7.81585 1.09004 7.83315 1.07878 7.85623C1.06753 7.87931 1.05627 7.90238 1.05064 7.92546C1.03939 7.94853 1.02814 7.96584 1.02251 7.99468C1.01688 8.01776 1.01688 8.04084 1.01125 8.06968C1.00563 8.09276 1 8.11584 1 8.14469V8.15045C1 8.15045 1 8.15045 1 8.15622V21.7886V21.7944C1 21.8002 1 21.8117 1 21.8175C1 21.8348 1.00563 21.8521 1.01125 21.8694C1.01125 21.8867 1.01688 21.8982 1.02251 21.9155C1.02814 21.9386 1.02814 21.9675 1.03939 21.9905C1.04502 22.0078 1.0619 22.0252 1.06753 22.0425C1.07316 22.054 1.07316 22.0655 1.07878 22.0771C1.08441 22.0886 1.09566 22.0944 1.10129 22.1059C1.11254 22.1232 1.11817 22.1405 1.12943 22.1578C1.14068 22.1751 1.16319 22.1867 1.18007 22.204C1.19132 22.2155 1.20821 22.2271 1.22509 22.2444C1.23634 22.2559 1.2476 22.2675 1.25885 22.279C1.26448 22.2848 1.27011 22.2905 1.27573 22.2905L1.28136 22.2963L12.7046 28.925C12.789 28.9769 12.8846 29 12.9803 29C13.076 29 13.1773 28.9712 13.2617 28.9192C13.2673 28.9135 13.2729 28.9135 13.2729 28.9077H13.2785L24.6961 22.2386L24.7018 22.2328C24.7074 22.2271 24.713 22.2213 24.7186 22.2213C24.7299 22.2098 24.7411 22.1982 24.7524 22.1867C24.7693 22.1751 24.7805 22.1636 24.7974 22.1463C24.8143 22.129 24.8312 22.1175 24.8481 22.1001C24.8593 22.0828 24.8706 22.0655 24.8762 22.0482C24.8818 22.0367 24.8931 22.0309 24.8987 22.0194C24.9043 22.0078 24.9043 21.9963 24.91 21.9848C24.9212 21.9675 24.9325 21.9502 24.9381 21.9328C24.9494 21.9098 24.9494 21.8809 24.955 21.8578C24.9606 21.8405 24.9606 21.829 24.9662 21.8117C24.9662 21.7944 24.9775 21.7771 24.9775 21.7598C24.9775 21.754 24.9775 21.7425 24.9775 21.7367V21.7309V8.08699C25 8.08699 25 8.08699 25 8.08122C25 8.08699 25 8.08122 25 8.08122ZM6.82415 11.335H19.1533L12.9859 22.1982L6.82415 11.335ZM12.9916 2.54865L18.9676 10.1812H7.0211L7.64572 9.38504L12.9916 2.54865ZM2.36178 21.3155L5.94068 12.0792L11.928 22.6309L2.36178 21.3155ZM20.0706 12.0273L23.6495 21.2579L14.0889 22.5674L20.0706 12.0273ZM2.1367 9.16004L5.14725 11.0004L4.22439 13.3773L2.1367 18.7714V9.16004ZM21.7869 13.3253L20.864 10.9485L23.8746 9.10812V18.7194L21.7869 13.3253ZM23.3118 8.11006L21.905 8.96966L20.2957 9.95618L15.2537 3.51209L23.3118 8.11006ZM10.7576 3.56401L5.71559 10.0081L4.10622 9.02158L2.69942 8.16199L10.7576 3.56401ZM4.38195 22.7578L12.4345 23.8597V27.4308L4.38195 22.7578ZM13.5824 23.802L21.6349 22.7001L13.5824 27.3731V23.802Z" />
</svg>
