<svg width="30" height="30" viewBox="0 0 30 30" fill="#000000" xmlns="http://www.w3.org/2000/svg">
<path d="M29.0845 17.8848L29.0845 17.8848L29.0819 17.8815L15.6532 1.04832L15.6532 1.04831L15.6525 1.04741C15.4859 0.840567 15.2313 0.75 14.9961 0.75C14.761 0.75 14.5063 0.840567 14.3398 1.04741L14.339 1.0484L0.923363 17.8797C0.923096 17.88 0.922829 17.8804 0.922563 17.8807C0.641069 18.2279 0.712695 18.7278 1.07262 18.99L14.4919 29.0785C14.6443 29.1975 14.8264 29.25 15.0019 29.25C15.1774 29.25 15.3594 29.1975 15.5118 29.0786L28.9386 18.9888L28.9396 18.9881C29.2867 18.7244 29.3539 18.2344 29.0845 17.8848ZM2.73112 18.2263L14.169 3.87412V26.8273L2.73112 18.2263ZM27.2668 18.2263L15.8232 26.8275V3.87385L27.2668 18.2263Z"/>
</svg>
