<svg width="30" height="30" viewBox="0 0 30 30" fill="#000000"  xmlns="http://www.w3.org/2000/svg">
<path d="M0.963731 15.6515C0.711401 15.9247 0.676301 16.3324 0.891405 16.6424C0.899284 16.6538 0.906214 16.6619 0.908093 16.664L0.908295 16.6643C0.912148 16.6688 0.915648 16.6726 0.91802 16.6751C0.922874 16.6803 0.928009 16.6856 0.932554 16.6901C0.941905 16.6995 0.954037 16.7113 0.96816 16.7249C0.99668 16.7524 1.0372 16.7907 1.08846 16.8388C1.19118 16.9352 1.33946 17.0732 1.52653 17.2464C1.90078 17.593 2.43169 18.0821 3.06709 18.6661C4.33796 19.8342 6.02759 21.3823 7.71981 22.9289C9.41201 24.4755 11.107 26.0209 12.3886 27.1835C13.0293 27.7647 13.567 28.2506 13.9495 28.5932C14.1406 28.7645 14.2935 28.9004 14.4014 28.9948C14.4551 29.0418 14.4987 29.0795 14.5306 29.1062C14.5464 29.1194 14.5609 29.1313 14.5731 29.1409C14.579 29.1455 14.5864 29.1511 14.5943 29.1566C14.5949 29.1571 14.6138 29.171 14.6401 29.183C14.7554 29.2355 14.8724 29.25 14.9694 29.25H14.9695H14.9696H14.9697H14.9698H14.9699H14.97H14.9701H14.9702H14.9703H14.9704H14.9706H14.9707H14.9708H14.9709H14.971H14.9711H14.9713H14.9714H14.9715H14.9716H14.9717H14.9719H14.972H14.9721H14.9723H14.9724H14.9725H14.9727H14.9728H14.9729H14.9731H14.9732H14.9733H14.9735H14.9736H14.9738H14.9739H14.974H14.9742H14.9743H14.9745H14.9746H14.9748H14.9749H14.9751H14.9752H14.9754H14.9755H14.9757H14.9759H14.976H14.9762H14.9763H14.9765H14.9767H14.9768H14.977H14.9772H14.9773H14.9775H14.9777H14.9778H14.978H14.9782H14.9783H14.9785H14.9787H14.9789H14.979H14.9792H14.9794H14.9796H14.9797H14.9799H14.9801H14.9803H14.9805H14.9807H14.9808H14.981H14.9812H14.9814H14.9816H14.9818H14.982H14.9822H14.9824H14.9825H14.9827H14.9829H14.9831H14.9833H14.9835H14.9837H14.9839H14.9841H14.9843H14.9845H14.9847H14.9849H14.9851H14.9853H14.9855H14.9857H14.986H14.9862H14.9864H14.9866H14.9868H14.987H14.9872H14.9874H14.9876H14.9878H14.9881H14.9883H14.9885H14.9887H14.9889H14.9891H14.9894H14.9896H14.9898H14.99H14.9902H14.9905H14.9907H14.9909H14.9911H14.9914H14.9916H14.9918H14.992H14.9923H14.9925H14.9927H14.9929H14.9932H14.9934H14.9936H14.9939H14.9941H14.9943H14.9946H14.9948H14.995H14.9953H14.9955H14.9957H14.996H14.9962H14.9964H14.9967H14.9969H14.9972H14.9974H14.9976H14.9979H14.9981H14.9984H14.9986H14.9988H14.9991H14.9993H14.9996H14.9998H15.0001H15.0003H15.0005H15.0008H15.001H15.0013H15.0015H15.0018H15.002H15.0023H15.0025H15.0028H15.003H15.0033H15.0035H15.0038H15.004H15.0043H15.0045H15.0048H15.005H15.0053H15.0055H15.0058H15.006H15.0063H15.0065H15.0068H15.0071H15.0073H15.0076H15.0078H15.0081H15.0083H15.0086H15.0089H15.0091H15.0094H15.0096H15.0099H15.0101H15.0104H15.0107H15.0109H15.0112H15.0114H15.0117H15.012H15.0122H15.0125H15.0127H15.013H15.0133H15.0135H15.0138H15.014H15.0143H15.0146H15.0148H15.0151H15.0154H15.0156H15.0159H15.0161H15.0164H15.0167H15.0169H15.0172H15.0175H15.0177H15.018H15.0182H15.0185H15.0188H15.019H15.0193H15.0196H15.0198H15.0201H15.0204H15.0206H15.0209H15.0212H15.0214H15.0217H15.0219H15.0222H15.0225H15.0227H15.023H15.0233H15.0235H15.0238H15.0241H15.0243H15.0246H15.0249H15.0251H15.0254H15.0257H15.0259H15.0262H15.0264H15.0267H15.027H15.0272H15.0275H15.0278H15.028H15.0283H15.0286H15.0288H15.0291H15.0293H15.0296H15.0299H15.0301H15.0304H15.0307H15.0309H15.0312H15.0314H15.0317H15.032H15.0322H15.0325H15.0328H15.033H15.0333H15.0335H15.0338H15.0341H15.0343H15.0346H15.0348H15.0351H15.0354H15.0356H15.0359H15.0361H15.0364H15.0366H15.0369H15.0372H15.0374H15.0377H15.0379H15.0382H15.0384H15.0387H15.039H15.0392H15.0395H15.0397H15.04H15.0402H15.0405H15.0407H15.041H15.0412H15.0415H15.0417H15.042H15.0422H15.0425H15.0427H15.043H15.0432H15.0435H15.0437H15.044H15.0442H15.0445H15.0447H15.045H15.0452H15.0455H15.0457H15.046H15.0462H15.0464H15.0467H15.0469H15.0472H15.0474H15.0477H15.0479H15.0481H15.0484H15.0486H15.0489H15.0491H15.0493H15.0496H15.0498H15.05H15.0503H15.0505H15.0508H15.051H15.0512H15.0515H15.0517H15.0519H15.0521H15.0524H15.0526H15.0528H15.0531H15.0533H15.0535H15.0538H15.054H15.0542H15.0544H15.0547H15.0549H15.0551H15.0553H15.0555H15.0558H15.056H15.0562H15.0564H15.0567H15.0569H15.0571H15.0573H15.0575H15.0577H15.058H15.0582H15.0584H15.0586H15.0588H15.059H15.0592H15.0594H15.0596H15.0599H15.0601H15.0603H15.0605H15.0607H15.0609H15.0611H15.0613H15.0615H15.0617H15.0619H15.0621H15.0623H15.0625H15.0627H15.0629H15.0631H15.0633H15.0635H15.0637H15.0638H15.064H15.0642H15.0644H15.0646H15.0648H15.065H15.0652H15.0654H15.0655H15.0657H15.0659H15.0661H15.0663H15.0664H15.0666H15.0668H15.067H15.0672H15.0673H15.0675H15.0677H15.0678H15.068H15.0682H15.0684H15.0685H15.0687H15.0689H15.069H15.0692H15.0694H15.0695H15.0697H15.0698H15.07H15.0702H15.0703H15.0705H15.0706H15.0708H15.0709H15.0711H15.0712H15.0714H15.0715H15.0717H15.0718H15.072H15.0721H15.0723H15.0724H15.0725H15.0727H15.0728H15.073H15.0731H15.0732H15.0734H15.0735H15.0736H15.0738H15.0739H15.074H15.0741H15.0743H15.0744H15.0745H15.0746H15.0748H15.0749H15.075H15.0751H15.0752H15.0753H15.0755H15.0756H15.0757H15.0758H15.0759H15.076H15.0761H15.0762H15.0763H15.0764H15.0765H15.0766C15.1925 29.25 15.2962 29.2252 15.391 29.1892C15.3961 29.1873 15.401 29.1852 15.4059 29.183C15.4336 29.1704 15.4549 29.1541 15.4556 29.1536C15.4627 29.1484 15.4696 29.1431 15.4752 29.1385C15.4868 29.1292 15.5009 29.1174 15.5164 29.1042C15.5478 29.0774 15.5908 29.0397 15.6442 28.9924C15.7511 28.8977 15.903 28.7612 16.093 28.5894C16.4731 28.2456 17.0079 27.7584 17.645 27.1761C18.9193 26.0113 20.6046 24.4646 22.2851 22.9201C23.9656 21.3756 25.6415 19.8332 26.8973 18.677C27.5252 18.0988 28.0481 17.6172 28.414 17.2801L28.8386 16.8889L28.9505 16.7859L28.9791 16.7595L28.9864 16.7528L28.9882 16.7511L28.9887 16.7507C28.9887 16.7506 28.9887 16.7506 28.9845 16.746C28.9846 16.746 28.9846 16.746 28.9846 16.746L28.9888 16.7505C28.9967 16.7432 29.0042 16.7354 29.0111 16.7272C29.0172 16.7222 29.0231 16.7169 29.0288 16.7113L29.031 16.7091C29.0492 16.6912 29.0929 16.6483 29.1278 16.5833C29.156 16.5348 29.1801 16.47 29.1925 16.4362C29.2094 16.3899 29.2237 16.3461 29.2255 16.3407C29.2304 16.3263 29.234 16.3115 29.2361 16.2964L29.2369 16.2915C29.2421 16.2555 29.25 16.201 29.25 16.1437C29.25 16.1303 29.2492 16.116 29.2487 16.1065L29.2466 16.0741L29.2447 16.0474C29.2445 16.043 29.2444 16.0408 29.2443 16.0402L0.963731 15.6515ZM0.963731 15.6515C0.963834 15.6514 0.963936 15.6513 0.964039 15.6512L0.964125 15.6511L0.965954 15.6491L0.973225 15.6412L1.00195 15.6099L1.11399 15.488L1.53926 15.0252L3.05729 13.3731L7.66488 8.35887C10.872 4.8688 14.0936 1.36294 14.3686 1.06501C14.4025 1.01919 14.448 0.965242 14.515 0.918054C14.5216 0.913408 14.5284 0.909085 14.5354 0.9051C14.5436 0.898095 14.5522 0.891618 14.5612 0.885712C14.6321 0.839057 14.7037 0.807319 14.7839 0.784538C14.8161 0.773297 14.8435 0.769969 14.8574 0.7686C14.8585 0.768486 14.8597 0.768379 14.8608 0.768278C14.907 0.756331 14.9547 0.75 15.0033 0.75C15.0194 0.75 15.0355 0.751565 15.0514 0.754674C15.0514 0.754681 15.0514 0.754688 15.0515 0.754695L15.0515 0.754698C15.0515 0.754706 15.0516 0.754715 15.0516 0.754723M0.963731 15.6515L15.0033 1M15.0516 0.754723L15.0515 0.755469C15.0528 0.755465 15.0542 0.755468 15.0558 0.75548M15.0516 0.754723L15.0516 0.75472L15.0515 0.755469C15.0483 0.755477 15.0459 0.755517 15.0444 0.755542C15.0436 0.755555 15.0431 0.755565 15.0428 0.755565C15.0461 0.755565 15.049 0.755642 15.0514 0.755743L15.0428 0.799574L15.0033 1M15.0516 0.754723L15.0533 0.755035L15.0558 0.75548M15.0558 0.75548L15.0593 0.756091C15.0611 0.756386 15.0621 0.75653 15.0624 0.756568M15.0558 0.75548C15.0771 0.75564 15.1205 0.757497 15.1643 0.769694M15.0624 0.756568L15.0583 0.756165C15.0572 0.756073 15.0548 0.755885 15.0514 0.755744L15.0428 0.799652L15.0033 1M15.0624 0.756568C15.0625 0.756581 15.0625 0.756582 15.0624 0.756572L15.0624 0.756568ZM15.0033 1C15.0033 1 15.0315 1.00556 15.0428 1.00556C15.0597 1.00556 15.0823 1.00557 15.0992 1.01113M15.1643 0.769694C15.1625 0.769258 15.1608 0.768827 15.159 0.768399L15.0992 1.01113M15.1643 0.769694C15.212 0.781558 15.2649 0.796214 15.3207 0.81981C15.3329 0.824986 15.3447 0.831119 15.3559 0.838139M15.1643 0.769694C15.1686 0.770902 15.1729 0.772212 15.1773 0.773633L15.0992 1.01113M15.0992 1.01113C15.1443 1.02226 15.1839 1.03339 15.2234 1.05009L15.3559 0.838139M15.3559 0.838139C15.3528 0.836982 15.3497 0.835887 15.3466 0.834854L15.3399 0.832629M15.3559 0.838139L15.3399 0.832624C15.3398 0.832599 15.3398 0.832601 15.3399 0.832629M15.3559 0.838139C15.3638 0.841077 15.3715 0.84441 15.3791 0.848126C15.4613 0.888669 15.5359 0.9448 15.5961 1.01085M15.3559 0.838139L15.5961 1.01085M15.3559 0.838139C15.3631 0.84264 15.3701 0.847505 15.3768 0.852716C15.3845 0.858721 15.3919 0.865186 15.3989 0.872082C15.3912 0.864458 15.3836 0.858199 15.3766 0.853118C15.3628 0.843024 15.3514 0.83758 15.3464 0.835332C15.3463 0.83528 15.3462 0.835231 15.3461 0.835183C15.3426 0.83364 15.3403 0.832778 15.3399 0.832629M15.3559 0.838139L15.3399 0.832629M15.5961 1.01085C15.5495 0.965076 15.4866 0.939241 15.4209 0.939227L15.4209 1.17865C15.421 0.939227 15.4211 0.939227 15.4212 0.939227L15.4214 0.939227L15.4219 0.939229L15.4229 0.939235L15.4249 0.939259L15.4291 0.939362L15.4383 0.939837C15.4447 0.940289 15.4522 0.941075 15.4606 0.942456C15.4762 0.945023 15.5009 0.950623 15.5287 0.964316C15.5504 0.975052 15.5769 0.992227 15.6011 1.01875C15.6019 1.01956 15.6026 1.02039 15.6033 1.02122C15.6102 1.02897 15.6169 1.03749 15.6232 1.04686C15.6536 1.0917 15.6653 1.14057 15.6653 1.18366C15.6653 1.12361 15.6436 1.0656 15.6044 1.02022C15.6037 1.01938 15.603 1.01856 15.6023 1.01773C15.6002 1.01543 15.5981 1.01313 15.5961 1.01085ZM28.9276 16.6841L28.9846 16.7459C28.9845 16.7459 28.9845 16.746 28.9845 16.746C28.9784 16.7393 28.9636 16.7232 28.9277 16.6842C28.9029 16.6573 28.8682 16.6196 28.8194 16.5667L28.9276 16.6841ZM14.9017 1.0167C14.8904 1.0167 14.8734 1.0167 14.8622 1.02226L14.9017 1.0167ZM14.1939 17.3662L14.1573 26.521L3.17424 16.4995L8.43116 14.6986L14.1939 17.3662ZM16.0522 15.4815L15.0225 15.9311L9.56993 13.439L12.1475 8.62074L12.1478 8.62021L15.0146 3.29186L20.4759 13.4401L16.0522 15.4815ZM22.2257 13.1783L18.8332 6.91686L25.688 14.3636L22.2257 13.1783ZM10.6914 7.89396L10.691 7.8946L7.85377 13.1618L4.35316 14.3627L11.2248 6.89679L10.6914 7.89396ZM21.8315 14.7419L26.8888 16.477L15.8768 26.5217L15.8297 17.366L16.714 16.9563L21.8315 14.7419Z"/>
</svg>
