<svg width="30" height="30" viewBox="0 0 30 30" fill="#000000" xmlns="http://www.w3.org/2000/svg">
<path d="M14.9969 0.752596L15.0016 0.75225C15.0104 0.751661 15.0224 0.750975 15.0364 0.750518C15.0625 0.749667 15.1037 0.749295 15.1458 0.754025L15.1564 0.755209L15.1563 0.755432C15.3014 0.777981 15.4343 0.875772 15.522 0.947827C15.621 1.0291 15.7184 1.12643 15.7947 1.20354L15.7954 1.2042L29.0241 14.673C29.0242 14.673 29.0243 14.6731 29.0243 14.6732C29.0379 14.6869 29.0485 14.6999 29.056 14.7097C29.0633 14.7191 29.0696 14.7281 29.0725 14.7322C29.0732 14.7332 29.0738 14.7341 29.0743 14.7348L29.0763 14.7367L29.0845 14.745L28.9068 14.9209C29.0845 14.745 29.0845 14.745 29.0845 14.7451L29.0846 14.7452L29.0848 14.7454L29.0851 14.7457L29.0859 14.7464L29.0874 14.748L29.0906 14.7515L29.0983 14.7601C29.1036 14.7664 29.1107 14.7753 29.1182 14.7867C29.1218 14.7921 29.1287 14.8029 29.1361 14.8182C29.1758 14.8831 29.2031 14.9483 29.2232 15.016L29.2335 15.0508V15.0642C29.2337 15.065 29.2338 15.0657 29.234 15.0665C29.2347 15.0705 29.2355 15.0751 29.2362 15.0805C29.2502 15.1486 29.2501 15.2156 29.25 15.2522L29.25 15.259C29.25 15.2712 29.2501 15.2979 29.2445 15.3329V15.3329V15.333V15.333V15.3331V15.3331V15.3332V15.3332V15.3333V15.3334V15.3334V15.3335V15.3335V15.3336V15.3337V15.3337V15.3338V15.3338V15.3339V15.334V15.334V15.3341V15.3341V15.3342V15.3343V15.3343V15.3344V15.3344V15.3345V15.3346V15.3346V15.3347V15.3348V15.3348V15.3349V15.3349V15.335V15.3351V15.3351V15.3352V15.3352V15.3353V15.3354V15.3354V15.3355V15.3356V15.3356V15.3357V15.3358V15.3358V15.3359V15.3359V15.336V15.3361V15.3361V15.3362V15.3363V15.3363V15.3364V15.3365V15.3365V15.3366V15.3951L29.2186 15.4475L29.2157 15.4534C29.1935 15.5418 29.1536 15.6159 29.1154 15.6738C29.1157 15.6733 29.1153 15.674 29.1124 15.6788C29.1109 15.6812 29.1085 15.6852 29.1057 15.6898C29.1041 15.6924 29.1023 15.6952 29.1006 15.698C29.0931 15.7097 29.081 15.728 29.064 15.7479C29.0616 15.7518 29.0586 15.7565 29.0553 15.7613C29.0478 15.7725 29.0357 15.7889 29.0186 15.8062L29.0169 15.808L15.6796 29.0151C15.6791 29.0155 15.6787 29.016 15.6783 29.0164C15.6432 29.0514 15.6064 29.0712 15.5936 29.078L15.5924 29.0787C15.5894 29.0803 15.5872 29.0815 15.5857 29.0824C15.5815 29.0854 15.5765 29.0893 15.5689 29.0954C15.5611 29.1015 15.5486 29.1116 15.5358 29.1212C15.5117 29.1392 15.4752 29.1645 15.4278 29.1843C15.3332 29.2291 15.2365 29.2378 15.1835 29.2425C15.1833 29.2425 15.1831 29.2426 15.1829 29.2426C15.1797 29.2429 15.1766 29.2431 15.1737 29.2434L15.1623 29.2445H15.1508C15.1596 29.2445 15.1673 29.2439 15.1737 29.2432C15.1804 29.2425 15.1857 29.2416 15.1891 29.241L14.9969 0.752596ZM14.9969 0.752596C14.8377 0.756317 14.7041 0.837928 14.6074 0.913655C14.5055 0.993369 14.4067 1.09713 14.3168 1.19613L0.981643 14.6283L0.981352 14.6286C0.95794 14.6523 0.934763 14.6809 0.914724 14.7126L0.848727 14.7793V14.8152C0.821805 14.8648 0.801539 14.9148 0.785624 14.9662C0.774824 14.9958 0.769963 15.024 0.767834 15.0457C0.749643 15.1162 0.749857 15.1803 0.749981 15.2176C0.749991 15.2205 0.75 15.2232 0.75 15.2257V15.2258V15.2259V15.2259V15.226V15.226V15.2261V15.2262V15.2262V15.2263V15.2264V15.2264V15.2265V15.2266V15.2266V15.2267V15.2268V15.2268V15.2269V15.227V15.227V15.2271V15.2272V15.2272V15.2273V15.2274V15.2275V15.2275V15.2276V15.2277V15.2277V15.2278V15.2279V15.2279V15.228V15.2281V15.2281V15.2282V15.2283V15.2283V15.2284V15.2285V15.2286V15.2286V15.2287V15.2288V15.2288V15.2289V15.229V15.229V15.2291V15.2292V15.2293V15.2293V15.2294V15.2295V15.2295V15.2296V15.2297V15.2298V15.2298V15.2299V15.23V15.23V15.2301V15.2302V15.2303V15.2303V15.2304V15.2305V15.2306V15.2306V15.2307V15.2308V15.2308V15.2309V15.231V15.2311V15.2311V15.2312V15.2313V15.2314V15.2314V15.2315V15.2316V15.2317V15.2317V15.2318V15.2319V15.2319V15.232V15.2321V15.2322V15.2322V15.2323V15.2324V15.2325V15.2325V15.2326V15.2327V15.2328V15.2328V15.2329V15.233V15.2331V15.2331V15.2332V15.2333V15.2334V15.2334V15.2335V15.2336V15.2337V15.2338V15.2338V15.2339V15.234V15.2341V15.2341V15.2342V15.2343V15.2344V15.2344V15.2345V15.2346V15.2347V15.2347V15.2348V15.2349V15.235V15.2351V15.2351V15.2352V15.2353V15.2354V15.2354V15.2355V15.2356V15.2357V15.2358V15.2358V15.2359V15.236V15.2361V15.2361V15.2362V15.2363V15.2364V15.2365V15.2365V15.2366V15.2367V15.2368V15.2368V15.2369V15.237V15.2371V15.2372V15.2372V15.2373V15.2374V15.2375V15.2376V15.2376V15.2377V15.2378V15.2379V15.238V15.238V15.2381V15.2382V15.2383V15.2384V15.2384V15.2385V15.2386V15.2387V15.2387V15.2388V15.2389V15.239V15.2391V15.2391V15.2392V15.2393V15.2394V15.2395V15.2395V15.2396V15.2397V15.2398V15.2399V15.2399V15.24V15.2401V15.2402V15.2403V15.2403V15.2404V15.2405V15.2406V15.2407V15.2408V15.2408V15.2409V15.241V15.2411V15.2412V15.2412V15.2413V15.2414V15.2415V15.2416V15.2416V15.2417V15.2418V15.2419V15.242V15.242V15.2421V15.2422V15.2423V15.2424V15.2424V15.2425V15.2426V15.2427V15.2428V15.2429V15.2429V15.243V15.2431V15.2432V15.2433V15.2433V15.2434V15.2435V15.2436V15.2437V15.2437V15.2438V15.2439V15.244V15.2441V15.2441V15.2442V15.2443V15.2444V15.2445V15.2446V15.2446V15.2447V15.2448V15.2449V15.245V15.245V15.2451V15.2452V15.2453V15.2454V15.2454V15.2455V15.2456V15.2457V15.2458V15.2459V15.2459V15.246V15.2461V15.2462V15.2463V15.2463V15.2464V15.2465V15.2466V15.2467V15.2467V15.2468V15.2469V15.247V15.2471V15.2472V15.2472V15.2473V15.2474V15.2475V15.2476V15.2476V15.2477V15.2478V15.2479V15.248V15.248V15.2481V15.2482V15.2483V15.2484V15.2484V15.2485V15.2486V15.2487V15.2488V15.2488V15.2489V15.249V15.2491V15.2492V15.2493V15.2493V15.2494V15.2495V15.2496V15.2497V15.2497V15.2498V15.2499V15.25V15.2501V15.2501V15.2502V15.2503V15.2504V15.2505V15.2505V15.2506V15.2507V15.2508V15.2509V15.2509V15.251V15.2511V15.2512V15.2513V15.2513V15.2514V15.2515V15.2516V15.2517V15.2517V15.2518V15.2519V15.252V15.2521V15.2521V15.2522V15.2523V15.2524V15.2524V15.2525V15.2526V15.2527V15.2528V15.2528V15.2529V15.253V15.2531V15.2532V15.2532V15.2533V15.2534V15.2535V15.2536V15.2536V15.2537V15.2538V15.2539V15.2539V15.254V15.2541V15.2542V15.2543V15.2543V15.2544V15.2545V15.2546V15.2546V15.2547V15.2548V15.2549V15.255V15.255V15.2551V15.2552V15.2553V15.2553V15.2554V15.2555V15.2556V15.2557V15.2557V15.2558V15.2559V15.256V15.256V15.2561V15.2562V15.2563V15.2563V15.2564V15.2565V15.2566V15.2566V15.2567V15.2568V15.2569V15.2569V15.257V15.2571V15.2572V15.2572V15.2573V15.2574V15.2575V15.2576V15.2576V15.2577V15.2578V15.2578V15.2579V15.258V15.2581V15.2581V15.2582V15.2583V15.2584V15.2584V15.2585V15.2586V15.2587V15.2587V15.2588V15.2589V15.259V15.259V15.2591V15.2592V15.2593V15.2593V15.2594V15.2595V15.2595V15.2596V15.2597V15.2598V15.2598V15.2599V15.26V15.2601V15.2601V15.2602V15.2603V15.2603V15.2604V15.2605V15.2606V15.2606V15.2607V15.2608V15.2608V15.2609V15.261V15.2611V15.2611V15.2612V15.2613V15.2613V15.2614V15.2615V15.2615V15.2616V15.2617V15.2618V15.2618V15.2619V15.262V15.262V15.2621V15.2622V15.2622V15.2623V15.2624V15.2625V15.2625V15.2626V15.2627V15.2627V15.2628V15.2629V15.2629V15.263V15.2631V15.2631V15.2632V15.2633V15.2633V15.2634V15.2635V15.2635V15.2636V15.2637V15.2637V15.2638V15.2639V15.2639V15.264V15.2641V15.2641V15.2642V15.2643V15.2643V15.2644V15.2645V15.2645V15.2646V15.2647V15.2647V15.2648V15.2648V15.2649V15.265V15.265V15.2651V15.2652V15.2652V15.2653V15.2654V15.2654V15.2655V15.2655V15.2656V15.2657V15.2657V15.2658V15.2659V15.2659V15.266V15.266V15.2661V15.2662V15.2662V15.2663V15.2664V15.2664V15.2665V15.2665V15.2666V15.2667V15.2667V15.2668V15.2668V15.2669V15.267V15.267V15.2671V15.2671V15.2672V15.2673V15.2673V15.2674V15.2674V15.2675V15.2676V15.2676V15.2677V15.2677V15.2678V15.2679V15.2679V15.268V15.268V15.2681V15.2682V15.2682V15.2683V15.2683V15.2684V15.2684V15.2685V15.2686V15.2686V15.2687V15.2687V15.2688V15.2688V15.2689V15.269V15.269V15.2691V15.2691V15.2692V15.2692V15.2693V15.2694V15.2694V15.2695V15.2695V15.2696V15.2696V15.2697V15.2697V15.2698V15.2699V15.2699V15.27V15.27V15.2701V15.2701V15.2702V15.2702V15.2703V15.2704V15.2704V15.2705V15.2705V15.2706V15.2706V15.2707V15.2707V15.2708V15.2708V15.2709V15.271V15.271V15.2711V15.2711V15.2712V15.2712V15.2713V15.2713V15.2714V15.2714V15.2715V15.2715V15.2716V15.2717V15.2717V15.2718V15.2718V15.2719V15.2719V15.272V15.272V15.2721V15.2721V15.2722V15.2722V15.2723V15.2723V15.2724V15.2724V15.2725V15.2725V15.2726V15.2727V15.2727V15.2728V15.2728V15.2729V15.2729V15.273V15.273V15.2731V15.2731V15.2732V15.2732V15.2733V15.2733V15.2734V15.2734V15.2735V15.2735V15.2736V15.2736V15.2737V15.2737V15.2738V15.2738V15.2739V15.2739V15.274V15.274V15.2741V15.2741V15.2742V15.2742V15.2743V15.2743V15.2744V15.2744V15.2745V15.2745V15.2746V15.2746V15.2747V15.2747V15.2748V15.2748V15.2749V15.2749V15.275V15.275V15.2751V15.2751V15.2752V15.2752V15.2753V15.2753V15.2754V15.2754V15.2755V15.2755V15.2756V15.2756V15.2757V15.2757V15.2758V15.2758V15.2759V15.2759V15.276V15.276V15.2761V15.2761V15.2762V15.2762V15.2763V15.2763V15.2764V15.2764V15.2765V15.2765V15.2766V15.2766V15.2767V15.2767V15.2768V15.2768V15.2769V15.2769V15.277V15.277V15.2771V15.2771V15.2772V15.2772V15.2773V15.2773V15.2774V15.2774V15.2775V15.2775V15.2776V15.2776V15.2776V15.2777V15.2777V15.2778V15.2778V15.2779V15.2779V15.278V15.278V15.2781V15.2781V15.2782V15.2782V15.2783V15.2783V15.2784V15.2784V15.2785V15.2785V15.2786V15.2786V15.2787V15.2787V15.2788V15.2788V15.2789V15.2789V15.279V15.279V15.2791V15.2791V15.2792V15.2792V15.2793V15.2793V15.2794V15.2794V15.2795V15.2795V15.2796V15.2796V15.2796V15.2797V15.2797V15.2798V15.2798V15.2799V15.2799V15.28V15.28V15.2801V15.2801V15.2802V15.2802V15.2803V15.2803V15.2804V15.2804V15.2805V15.2805V15.2806V15.2806V15.2807V15.2807V15.2808V15.2808V15.2809V15.2809V15.281V15.281V15.2811V15.2811V15.2812V15.2812V15.2813V15.2813V15.2814V15.2814V15.2815V15.2815V15.2816V15.2816V15.2817V15.2817V15.2818V15.2818V15.2819V15.2819V15.282V15.282V15.2821V15.2821V15.2822V15.2822V15.2823V15.2823V15.2824V15.2824V15.2825V15.2825V15.2826V15.2826V15.2827V15.2827V15.2828V15.2828V15.2829V15.2829V15.283V15.283V15.2831V15.2831V15.2832V15.2832V15.2833V15.2833V15.2834V15.2834V15.2835V15.2835V15.2836V15.2836V15.2837V15.2837V15.2838V15.2839V15.2839V15.284V15.284V15.2841V15.2841V15.2842V15.2842V15.2843V15.2843V15.2844V15.2844V15.2845V15.2845V15.2846V15.2846V15.2847V15.2847V15.2848V15.2848V15.2849V15.2849V15.285V15.2851V15.2851V15.2852V15.2852V15.2853V15.2853V15.2854V15.2854V15.2855V15.2855V15.2856V15.2856V15.2857V15.2858V15.2858V15.2859V15.2859V15.286V15.286V15.2861V15.2861V15.2862V15.2862V15.2863V15.2864V15.2864V15.2865V15.2865V15.2866V15.2866V15.2867V15.2867V15.2868V15.2868V15.2869V15.287V15.287V15.2871V15.2871V15.2872V15.2872V15.2873V15.2873V15.2874V15.2875V15.2875V15.2876V15.2876V15.2877V15.2877V15.2878V15.2879V15.2879V15.288V15.288V15.2881V15.2881V15.2882V15.2883V15.2883V15.2884V15.2884V15.2885V15.2886V15.2886V15.2887V15.2887V15.2888V15.2888V15.2889V15.289V15.289V15.2891V15.2891V15.2892V15.2893V15.2893V15.2894V15.2894V15.2895V15.2896V15.2896V15.2897V15.2897V15.2898V15.2899V15.2899V15.29V15.29V15.2901V15.2902V15.2902V15.2903V15.2903V15.2904V15.2905V15.2905V15.2906V15.2907V15.2907V15.2908V15.2908V15.2909V15.291V15.291V15.2911V15.2912V15.2912V15.2913V15.2913V15.2914V15.2915V15.2915V15.2916V15.2917V15.2917V15.2918V15.2919V15.2919V15.292V15.292V15.2921V15.2922V15.2922V15.3194L0.755833 15.3459C0.765476 15.3898 0.778589 15.4474 0.804848 15.5091V15.5114L0.819803 15.5417L0.830773 15.5638C0.830829 15.564 0.830885 15.5641 0.830941 15.5642L0.837734 15.5779L0.838304 15.5785C0.87331 15.6441 0.91886 15.6977 0.946779 15.7306L0.952039 15.7381C0.954722 15.7418 0.958401 15.7468 0.962922 15.7524C0.967381 15.7579 0.97355 15.7651 0.981342 15.7729L0.981314 15.773L0.984453 15.776L14.5584 29.0227C14.5982 29.0623 14.6394 29.0833 14.6569 29.0922L14.6658 29.0966L14.9969 0.752596ZM0.848727 14.8821C0.848727 14.8846 0.848678 14.8837 0.848727 14.8808V14.8821ZM5.5435 17.9777L14.2982 22.1245L14.3169 26.5364L5.5435 17.9777ZM15.909 26.529L15.895 22.1233L24.5201 18.0017L15.909 26.529ZM15.8874 20.3453L15.8201 3.44226L27.1017 14.9899L15.8874 20.3453ZM14.2904 20.345L2.91284 14.9517L14.2231 3.56854L14.2904 20.345Z"  />
</svg>
