<svg width="48" height="50" viewBox="0 0 48 50" fill="#000000" xmlns="http://www.w3.org/2000/svg">
<path d="M42.3801 7.45993C46.5801 9.72993 47.5901 11.1299 47.8501 15.9599C47.9201 17.9599 47.8501 30.0799 47.9101 31.6399C48.0601 35.4199 46.3901 38.0799 43.1101 39.8899C38.2001 42.6099 33.3401 45.4199 28.4501 48.1699C25.5801 49.7799 22.6801 49.7899 19.8201 48.1799C14.9301 45.4299 10.0801 42.5999 5.16006 39.8999C1.87006 38.0899 0.270058 35.4299 0.310058 31.6599C0.370058 26.0799 0.310058 20.4999 0.330058 14.9199C0.340058 11.7799 1.79005 9.45993 4.60005 8.08993C9.80005 5.53993 13.9701 3.37993 19.2801 1.05993C22.2701 -0.320069 26.0801 -0.590069 30.1601 1.59993C31.6601 2.40993 41.3601 6.90993 42.3801 7.45993ZM4.20005 10.7399C4.65005 11.0299 4.85005 11.1799 5.06005 11.2999C11.1601 14.6999 17.2501 18.0999 23.3801 21.4499C23.7801 21.6699 24.5101 21.6099 24.9301 21.3799C30.9301 18.1099 36.9101 14.7899 42.8901 11.4699C43.2201 11.2899 43.5301 11.0799 43.9801 10.7999C43.4901 10.4999 43.1701 10.2599 42.8201 10.0999C37.6301 7.61993 32.4501 5.09993 27.2201 2.68993C25.1801 1.74993 23.0101 1.74993 20.9401 2.70993C16.5101 4.77993 12.1001 6.89993 7.68006 9.00993C6.59006 9.54993 5.51005 10.0999 4.20005 10.7399ZM45.4401 12.7299C45.0301 12.8899 44.8601 12.9399 44.7101 13.0199C38.4001 16.4899 32.0901 19.9499 25.8101 23.4599C25.4901 23.6399 25.2401 24.2499 25.2401 24.6599C25.2001 31.7499 25.2101 38.8499 25.2101 45.9399C25.2101 46.2899 25.2401 46.6399 25.2701 47.2099C25.9901 46.9299 26.6101 46.7599 27.1501 46.4599C32.2601 43.5799 37.3501 40.6699 42.4501 37.7799C44.6501 36.5299 45.7701 34.6599 45.7701 32.1299C45.7701 26.3299 45.7801 20.5299 45.7601 14.7399C45.7401 14.1099 45.5601 13.4899 45.4401 12.7299ZM23.0601 47.2199C23.0601 46.4799 23.0601 46.0599 23.0601 45.6299C23.0601 38.7199 23.0401 31.7999 23.0801 24.8899C23.0801 24.0499 22.8201 23.6099 22.0901 23.2199C16.0701 19.8999 10.0701 16.5499 4.07006 13.1999C3.74006 13.0199 3.39006 12.8699 2.82006 12.5999C2.69006 13.5399 2.51005 14.2699 2.51005 14.9899C2.49005 20.6399 2.52006 26.2999 2.49006 31.9499C2.48006 34.6299 3.62006 36.5499 5.94006 37.8499C10.9301 40.6499 15.9001 43.4899 20.8901 46.2899C21.5001 46.6399 22.1801 46.8499 23.0601 47.2199Z" />
</svg>
